<svg width="200" height="200" viewBox="0 0 200 200" xmlns="http://www.w3.org/2000/svg">
    <defs>
      <linearGradient id="grad1" x1="0%" y1="0%" x2="100%" y2="100%">
        <stop offset="0%" style="stop-color:rgb(148, 74, 194);stop-opacity:1" />
        <stop offset="100%" style="stop-color:rgb(75, 0, 130);stop-opacity:1" />
      </linearGradient>
    </defs>
    <polygon points="100,10 170,60 170,140 100,190 30,140 30,60" fill="url(#grad1)" />
    <polygon points="100,10 100,60 50,100 100,140 150,100" fill="rgb(171, 71, 188)" />
    <polygon points="100,10 100,60 150,100" fill="rgb(188, 71, 171)" />
    <polygon points="100,140 100,190 50,140" fill="rgb(96, 0, 162)" />
    <polygon points="100,140 150,100 100,60 50,100" fill="rgb(255, 192, 203)" />
    <polygon points="100,10 120,40 100,60 80,40" fill="rgb(102, 0, 204)" />
    <polygon points="100,60 120,80 100,100 80,80" fill="rgb(138, 43, 226)" />
    <polygon points="100,100 120,120 100,140 80,120" fill="rgb(171, 71, 188)" />
    <polygon points="100,100 80,80 120,80" fill="rgb(204, 0, 204)" />
  </svg>